<svg width="16" height="14" viewBox="0 0 16 14" fill="none" xmlns="http://www.w3.org/2000/svg">
<path fill-rule="evenodd" clip-rule="evenodd" d="M14.0704 5.81394C14.2211 5.45019 14.2987 5.06032 14.2987 4.66658C14.2987 4.27285 14.2211 3.88297 14.0704 3.51923C13.9198 3.15564 13.6987 2.82496 13.4202 2.54658C13.1419 2.26818 12.8112 2.04701 12.4475 1.89632C12.0838 1.74561 11.6939 1.66803 11.3002 1.66803C10.9064 1.66803 10.5166 1.74561 10.1528 1.89632C9.78914 2.04701 9.45856 2.26799 9.18019 2.54646L8.94485 2.7818C8.42311 3.30354 7.57721 3.30354 7.05547 2.7818L6.8202 2.54654C6.25793 1.98427 5.49533 1.66839 4.70016 1.66839C3.90499 1.66839 3.14239 1.98427 2.58012 2.54654C2.01785 3.10881 1.70197 3.87141 1.70197 4.66658C1.70197 5.46175 2.01785 6.22435 2.58012 6.78662L8.00016 12.2067L13.4202 6.78662C13.6986 6.50829 13.9197 6.17765 14.0704 5.81394ZM14.3648 1.60173C14.7673 2.0041 15.0868 2.48204 15.3047 3.00782C15.5226 3.53369 15.6347 4.09735 15.6347 4.66658C15.6347 5.23582 15.5226 5.79947 15.3047 6.32535C15.0868 6.85117 14.7674 7.32893 14.3649 7.73132L8.47156 13.6247C8.21122 13.885 7.7891 13.885 7.52876 13.6247L1.63542 7.73132C0.822604 6.9185 0.365967 5.81608 0.365967 4.66658C0.365967 3.51708 0.822604 2.41466 1.63542 1.60184C2.44824 0.789025 3.55066 0.332388 4.70016 0.332388C5.84966 0.332388 6.95208 0.789025 7.7649 1.60184L8.00016 1.83711L8.23531 1.60195C8.6377 1.1994 9.11557 0.879959 9.6414 0.662081C10.1673 0.444184 10.7309 0.332031 11.3002 0.332031C11.8694 0.332031 12.433 0.444184 12.9589 0.662081C13.4847 0.879939 13.9624 1.19923 14.3648 1.60173Z" fill="#089B12"/>
</svg>
